# xmcd
#
# Track frame offsets: 
#        150
#        15040
#        31565
#        44887
#        56190
#        73077
#        94916
#        109804
#        128499
#        144220
#
# Disc length: 2140 seconds
#
# Revision: 0
# Processed by: cddbd v1.5.1PL2 Copyright (c) Steve Scherf et al.
# Submitted via: ExactAudioCopy v0.95a5
#
DISCID=7f085a0a
DTITLE=Doug Pettibone - The West Gate
DYEAR=2006
DGENRE=Acoustic
TTITLE0=The West Gate
TTITLE1=Big River
TTITLE2=Two of Us [duet w. Lucinda Williams]
TTITLE3=North Carolina
TTITLE4=Into the Mystic
TTITLE5=Jolene
TTITLE6=Honey Biscuit
TTITLE7=Little Man
TTITLE8=Original Originator
TTITLE9=She Belongs To Me [duet w. Lucinda Williams]
EXTD=
EXTT0=
EXTT1=
EXTT2=
EXTT3=
EXTT4=
EXTT5=
EXTT6=
EXTT7=
EXTT8=
EXTT9=
PLAYORDER=
